# xmcd CD database file
#
# Track frame offsets:
#	150
#	19995
#	44296
#	68080
#	90430
#	118031
#	141732
#	165545
#	195208
#
# Disc length: 3350 seconds
#
# Revision: 0
# Processed by: cddbd v1.5.2PL0 Copyright (c) Steve Scherf et al.
# Submitted via: CDex 1.51
#
DISCID=750d1409
DTITLE=Various Artist - Macrolibrarsi Music vol .VI
DYEAR=1900
DGENRE=New Age
TTITLE0=Riccardo Tristano Tuis - Ray of Sun
TTITLE1=Heart of Earth - Ritual of Sun
TTITLE2=Capitanata - Essence of Dream
TTITLE3=Spa Music Institute - Relax in Your Life
TTITLE4=Grollo and Capitanata - Blue Landscape
TTITLE5=Spa Music Institute - Canon in D major for Piano
TTITLE6=Riccardo Tristano Tuis - Regeneration 
TTITLE7=Anje - Deep Love 
TTITLE8=Capitanata and Sheila Mahadevi - Himalaya Shakti
EXTD=
EXTT0=
EXTT1=
EXTT2=
EXTT3=
EXTT4=
EXTT5=
EXTT6=
EXTT7=
EXTT8=
PLAYORDER=
